<?xml version="1.0" encoding="UTF-8" standalone="no"?><svg xmlns="http://www.w3.org/2000/svg" xmlns:xlink="http://www.w3.org/1999/xlink" contentScriptType="application/ecmascript" contentStyleType="text/css" height="478px" preserveAspectRatio="none" style="width:957px;height:478px;" version="1.1" viewBox="0 0 957 478" width="957px" zoomAndPan="magnify"><defs><filter height="300%" id="f1mepvfe6ljlt5" width="300%" x="-1" y="-1"><feGaussianBlur result="blurOut" stdDeviation="2.0"/><feColorMatrix in="blurOut" result="blurOut2" type="matrix" values="0 0 0 0 0 0 0 0 0 0 0 0 0 0 0 0 0 0 .4 0"/><feOffset dx="4.0" dy="4.0" in="blurOut2" result="blurOut3"/><feBlend in="SourceGraphic" in2="blurOut3" mode="normal"/></filter></defs><g><!--MD5=[8413f8248b2da7966d2de021109ec289]
class users--><rect codeLine="5" fill="#FEFECE" filter="url(#f1mepvfe6ljlt5)" height="103.9922" id="users" style="stroke:#A80036;stroke-width:1.5;" width="178" x="752.5" y="184"/><text fill="#000000" font-family="sans-serif" font-size="12" lengthAdjust="spacing" textLength="35" x="824" y="200.1387">users</text><line style="stroke:#A80036;stroke-width:1.5;" x1="753.5" x2="929.5" y1="207.9688" y2="207.9688"/><ellipse cx="763.5" cy="218.9688" fill="#000000" rx="3" ry="3" style="stroke:#000000;stroke-width:1.0;"/><text fill="#000000" font-family="sans-serif" font-size="11" lengthAdjust="spacing" textLength="78" x="772.5" y="222.1792">id : UUID «PK»</text><ellipse cx="763.5" cy="231.7734" fill="#000000" rx="3" ry="3" style="stroke:#000000;stroke-width:1.0;"/><text fill="#000000" font-family="sans-serif" font-size="11" lengthAdjust="spacing" textLength="127" x="772.5" y="234.9839">email : TEXT «not null»</text><ellipse cx="763.5" cy="244.5781" fill="#000000" rx="3" ry="3" style="stroke:#000000;stroke-width:1.0;"/><text fill="#000000" font-family="sans-serif" font-size="11" lengthAdjust="spacing" textLength="128" x="772.5" y="247.7886">name : TEXT «not null»</text><ellipse cx="763.5" cy="257.3828" fill="#000000" rx="3" ry="3" style="stroke:#000000;stroke-width:1.0;"/><text fill="#000000" font-family="sans-serif" font-size="11" lengthAdjust="spacing" textLength="152" x="772.5" y="260.5933">password : TEXT «not null»</text><ellipse cx="763.5" cy="270.1875" fill="#000000" rx="3" ry="3" style="stroke:#000000;stroke-width:1.0;"/><text fill="#000000" font-family="sans-serif" font-size="11" lengthAdjust="spacing" textLength="118" x="772.5" y="273.3979">role : TEXT «not null»</text><line style="stroke:#A80036;stroke-width:1.5;" x1="753.5" x2="929.5" y1="279.9922" y2="279.9922"/><!--MD5=[c3651515b6ea3a4275d58ee28459792c]
class municipalities--><rect codeLine="13" fill="#FEFECE" filter="url(#f1mepvfe6ljlt5)" height="65.5781" id="municipalities" style="stroke:#A80036;stroke-width:1.5;" width="209" x="7" y="26"/><text fill="#000000" font-family="sans-serif" font-size="12" lengthAdjust="spacing" textLength="85" x="69" y="42.1387">municipalities</text><line style="stroke:#A80036;stroke-width:1.5;" x1="8" x2="215" y1="49.9688" y2="49.9688"/><ellipse cx="18" cy="60.9688" fill="#000000" rx="3" ry="3" style="stroke:#000000;stroke-width:1.0;"/><text fill="#000000" font-family="sans-serif" font-size="11" lengthAdjust="spacing" textLength="174" x="27" y="64.1792">id : INTEGER «PK» «generated»</text><ellipse cx="18" cy="73.7734" fill="#000000" rx="3" ry="3" style="stroke:#000000;stroke-width:1.0;"/><text fill="#000000" font-family="sans-serif" font-size="11" lengthAdjust="spacing" textLength="183" x="27" y="76.9839">name : TEXT «unique» «not null»</text><line style="stroke:#A80036;stroke-width:1.5;" x1="8" x2="215" y1="83.5781" y2="83.5781"/><!--MD5=[5fa3f3f24fcc73033a01bdfa1d859f84]
class cabins--><rect codeLine="18" fill="#FEFECE" filter="url(#f1mepvfe6ljlt5)" height="129.6016" id="cabins" style="stroke:#A80036;stroke-width:1.5;" width="268" x="449.5" y="171"/><text fill="#000000" font-family="sans-serif" font-size="12" lengthAdjust="spacing" textLength="41" x="563" y="187.1387">cabins</text><line style="stroke:#A80036;stroke-width:1.5;" x1="450.5" x2="716.5" y1="194.9688" y2="194.9688"/><ellipse cx="460.5" cy="205.9688" fill="#000000" rx="3" ry="3" style="stroke:#000000;stroke-width:1.0;"/><text fill="#000000" font-family="sans-serif" font-size="11" lengthAdjust="spacing" textLength="174" x="469.5" y="209.1792">id : INTEGER «PK» «generated»</text><ellipse cx="460.5" cy="218.7734" fill="#000000" rx="3" ry="3" style="stroke:#000000;stroke-width:1.0;"/><text fill="#000000" font-family="sans-serif" font-size="11" lengthAdjust="spacing" textLength="128" x="469.5" y="221.9839">name : TEXT «not null»</text><ellipse cx="460.5" cy="231.5781" fill="#000000" rx="3" ry="3" style="stroke:#000000;stroke-width:1.0;"/><text fill="#000000" font-family="sans-serif" font-size="11" lengthAdjust="spacing" textLength="143" x="469.5" y="234.7886">address : TEXT «not null»</text><ellipse cx="460.5" cy="244.3828" fill="#000000" rx="3" ry="3" style="stroke:#000000;stroke-width:1.0;"/><text fill="#000000" font-family="sans-serif" font-size="11" lengthAdjust="spacing" textLength="242" x="469.5" y="247.5933">price : INTEGER «not null» «microcurrency»</text><ellipse cx="460.5" cy="257.1875" fill="#000000" rx="3" ry="3" style="stroke:#000000;stroke-width:1.0;"/><text fill="#000000" font-family="sans-serif" font-size="11" lengthAdjust="spacing" textLength="101" x="469.5" y="260.3979">description : TEXT</text><line style="stroke:#A80036;stroke-width:1.0;" x1="450.5" x2="716.5" y1="266.9922" y2="266.9922"/><ellipse cx="460.5" cy="277.9922" fill="#000000" rx="3" ry="3" style="stroke:#000000;stroke-width:1.0;"/><text fill="#000000" font-family="sans-serif" font-size="11" lengthAdjust="spacing" textLength="229" x="469.5" y="281.2026">municipality_id : INTEGER «FK» «not null»</text><ellipse cx="460.5" cy="290.7969" fill="#000000" rx="3" ry="3" style="stroke:#000000;stroke-width:1.0;"/><text fill="#000000" font-family="sans-serif" font-size="11" lengthAdjust="spacing" textLength="176" x="469.5" y="294.0073">owner_id : UUID «FK» «not null»</text><!--MD5=[fbb9b5abc0442951ff62dbb688a229f9]
class reviews--><rect codeLine="29" fill="#FEFECE" filter="url(#f1mepvfe6ljlt5)" height="103.9922" id="reviews" style="stroke:#A80036;stroke-width:1.5;" width="204" x="739.5" y="7"/><text fill="#000000" font-family="sans-serif" font-size="12" lengthAdjust="spacing" textLength="46" x="818.5" y="23.1387">reviews</text><line style="stroke:#A80036;stroke-width:1.5;" x1="740.5" x2="942.5" y1="30.9688" y2="30.9688"/><ellipse cx="750.5" cy="41.9688" fill="#000000" rx="3" ry="3" style="stroke:#000000;stroke-width:1.0;"/><text fill="#000000" font-family="sans-serif" font-size="11" lengthAdjust="spacing" textLength="174" x="759.5" y="45.1792">id : INTEGER «PK» «generated»</text><ellipse cx="750.5" cy="54.7734" fill="#000000" rx="3" ry="3" style="stroke:#000000;stroke-width:1.0;"/><text fill="#000000" font-family="sans-serif" font-size="11" lengthAdjust="spacing" textLength="80" x="759.5" y="57.9839">content : TEXT</text><ellipse cx="750.5" cy="67.5781" fill="#000000" rx="3" ry="3" style="stroke:#000000;stroke-width:1.0;"/><text fill="#000000" font-family="sans-serif" font-size="11" lengthAdjust="spacing" textLength="97" x="759.5" y="70.7886">rating : SMALLINT</text><line style="stroke:#A80036;stroke-width:1.0;" x1="740.5" x2="942.5" y1="77.3828" y2="77.3828"/><ellipse cx="750.5" cy="88.3828" fill="#000000" rx="3" ry="3" style="stroke:#000000;stroke-width:1.0;"/><text fill="#000000" font-family="sans-serif" font-size="11" lengthAdjust="spacing" textLength="153" x="759.5" y="91.5933">user_id : UUID «FK» not null</text><ellipse cx="750.5" cy="101.1875" fill="#000000" rx="3" ry="3" style="stroke:#000000;stroke-width:1.0;"/><text fill="#000000" font-family="sans-serif" font-size="11" lengthAdjust="spacing" textLength="178" x="759.5" y="104.3979">cabin_id : INTEGER «FK» not null</text><!--MD5=[a55992ddd2a515a7aacee27070226d93]
class reservations--><rect codeLine="38" fill="#FEFECE" filter="url(#f1mepvfe6ljlt5)" height="103.9922" id="reservations" style="stroke:#A80036;stroke-width:1.5;" width="218" x="603.5" y="361"/><text fill="#000000" font-family="sans-serif" font-size="12" lengthAdjust="spacing" textLength="78" x="673.5" y="377.1387">reservations</text><line style="stroke:#A80036;stroke-width:1.5;" x1="604.5" x2="820.5" y1="384.9688" y2="384.9688"/><ellipse cx="614.5" cy="395.9688" fill="#000000" rx="3" ry="3" style="stroke:#000000;stroke-width:1.0;"/><text fill="#000000" font-family="sans-serif" font-size="11" lengthAdjust="spacing" textLength="174" x="623.5" y="399.1792">id : INTEGER «PK» «generated»</text><ellipse cx="614.5" cy="408.7734" fill="#000000" rx="3" ry="3" style="stroke:#000000;stroke-width:1.0;"/><text fill="#000000" font-family="sans-serif" font-size="11" lengthAdjust="spacing" textLength="155" x="623.5" y="411.9839">start_date : DATE «not null»</text><ellipse cx="614.5" cy="421.5781" fill="#000000" rx="3" ry="3" style="stroke:#000000;stroke-width:1.0;"/><text fill="#000000" font-family="sans-serif" font-size="11" lengthAdjust="spacing" textLength="149" x="623.5" y="424.7886">end_date : DATE «not null»</text><line style="stroke:#A80036;stroke-width:1.0;" x1="604.5" x2="820.5" y1="431.3828" y2="431.3828"/><ellipse cx="614.5" cy="442.3828" fill="#000000" rx="3" ry="3" style="stroke:#000000;stroke-width:1.0;"/><text fill="#000000" font-family="sans-serif" font-size="11" lengthAdjust="spacing" textLength="167" x="623.5" y="445.5933">user_id : UUID «FK» «not null»</text><ellipse cx="614.5" cy="455.1875" fill="#000000" rx="3" ry="3" style="stroke:#000000;stroke-width:1.0;"/><text fill="#000000" font-family="sans-serif" font-size="11" lengthAdjust="spacing" textLength="192" x="623.5" y="458.3979">cabin_id : INTEGER «FK» «not null»</text><!--MD5=[1dfcb459c8d67fa22f97ae4d9abe5177]
class cabin_images--><rect codeLine="47" fill="#FEFECE" filter="url(#f1mepvfe6ljlt5)" height="91.1875" id="cabin_images" style="stroke:#A80036;stroke-width:1.5;" width="218" x="251.5" y="13.5"/><text fill="#000000" font-family="sans-serif" font-size="12" lengthAdjust="spacing" textLength="85" x="318" y="29.6387">cabin_images</text><line style="stroke:#A80036;stroke-width:1.5;" x1="252.5" x2="468.5" y1="37.4688" y2="37.4688"/><ellipse cx="262.5" cy="48.4688" fill="#000000" rx="3" ry="3" style="stroke:#000000;stroke-width:1.0;"/><text fill="#000000" font-family="sans-serif" font-size="11" lengthAdjust="spacing" textLength="174" x="271.5" y="51.6792">id : INTEGER «PK» «generated»</text><ellipse cx="262.5" cy="61.2734" fill="#000000" rx="3" ry="3" style="stroke:#000000;stroke-width:1.0;"/><text fill="#000000" font-family="sans-serif" font-size="11" lengthAdjust="spacing" textLength="180" x="271.5" y="64.4839">data : TEXT «not null» «base64»</text><ellipse cx="262.5" cy="74.0781" fill="#000000" rx="3" ry="3" style="stroke:#000000;stroke-width:1.0;"/><text fill="#000000" font-family="sans-serif" font-size="11" lengthAdjust="spacing" textLength="177" x="271.5" y="77.2886">is_default : BOOLEAN «not null»</text><line style="stroke:#A80036;stroke-width:1.0;" x1="252.5" x2="468.5" y1="83.8828" y2="83.8828"/><ellipse cx="262.5" cy="94.8828" fill="#000000" rx="3" ry="3" style="stroke:#000000;stroke-width:1.0;"/><text fill="#000000" font-family="sans-serif" font-size="11" lengthAdjust="spacing" textLength="192" x="271.5" y="98.0933">cabin_id : INTEGER «FK» «not null»</text><!--MD5=[19a60745b29f107cb0290fe4b87d388c]
class keywords--><rect codeLine="55" fill="#FEFECE" filter="url(#f1mepvfe6ljlt5)" height="65.5781" id="keywords" style="stroke:#A80036;stroke-width:1.5;" width="200" x="504.5" y="26"/><text fill="#000000" font-family="sans-serif" font-size="12" lengthAdjust="spacing" textLength="58" x="575.5" y="42.1387">keywords</text><line style="stroke:#A80036;stroke-width:1.5;" x1="505.5" x2="703.5" y1="49.9688" y2="49.9688"/><ellipse cx="515.5" cy="60.9688" fill="#000000" rx="3" ry="3" style="stroke:#000000;stroke-width:1.0;"/><text fill="#000000" font-family="sans-serif" font-size="11" lengthAdjust="spacing" textLength="174" x="524.5" y="64.1792">id : INTEGER «PK» «generated»</text><ellipse cx="515.5" cy="73.7734" fill="#000000" rx="3" ry="3" style="stroke:#000000;stroke-width:1.0;"/><text fill="#000000" font-family="sans-serif" font-size="11" lengthAdjust="spacing" textLength="143" x="524.5" y="76.9839">keyword : TEXT «not null»</text><line style="stroke:#A80036;stroke-width:1.5;" x1="505.5" x2="703.5" y1="83.5781" y2="83.5781"/><!--MD5=[3e5ecd75f46ce016c0b694721eb5d0b2]
link cabins to reservations--><path codeLine="60" d="M660.5,309.15 C660.5,309.15 660.5,352.98 660.5,352.98 " fill="none" id="cabins-reservations" style="stroke:#A80036;stroke-width:1.0;"/><line style="stroke:#A80036;stroke-width:1.0;" x1="660.5" x2="666.5" y1="352.98" y2="360.98"/><line style="stroke:#A80036;stroke-width:1.0;" x1="660.5" x2="654.5" y1="352.98" y2="360.98"/><line style="stroke:#A80036;stroke-width:1.0;" x1="660.5" x2="660.5" y1="352.98" y2="360.98"/><ellipse cx="660.5" cy="346.98" fill="none" rx="4" ry="4" style="stroke:#A80036;stroke-width:1.0;"/><line style="stroke:#A80036;stroke-width:1.0;" x1="656.5" x2="664.5" y1="305.15" y2="305.15"/><line style="stroke:#A80036;stroke-width:1.0;" x1="656.5" x2="664.5" y1="308.15" y2="308.15"/><line style="stroke:#A80036;stroke-width:1.0;" x1="660.5" x2="660.5" y1="309.15" y2="301.15"/><!--MD5=[a8dbc755d60c86b2dc93e62c98b677bf]
link users to reservations--><path codeLine="61" d="M787,296.15 C787,296.15 787,352.92 787,352.92 " fill="none" id="users-reservations" style="stroke:#A80036;stroke-width:1.0;"/><line style="stroke:#A80036;stroke-width:1.0;" x1="787" x2="793" y1="352.92" y2="360.92"/><line style="stroke:#A80036;stroke-width:1.0;" x1="787" x2="781" y1="352.92" y2="360.92"/><line style="stroke:#A80036;stroke-width:1.0;" x1="787" x2="787" y1="352.92" y2="360.92"/><ellipse cx="787" cy="346.92" fill="none" rx="4" ry="4" style="stroke:#A80036;stroke-width:1.0;"/><line style="stroke:#A80036;stroke-width:1.0;" x1="783" x2="791" y1="292.15" y2="292.15"/><line style="stroke:#A80036;stroke-width:1.0;" x1="783" x2="791" y1="295.15" y2="295.15"/><line style="stroke:#A80036;stroke-width:1.0;" x1="787" x2="787" y1="296.15" y2="288.15"/><!--MD5=[3aab6263b55d28f40f118048087b98ce]
link cabin_images to cabins--><path codeLine="62" d="M459.5,112.58 C459.5,112.58 459.5,162.89 459.5,162.89 " fill="none" id="cabin_images-cabins" style="stroke:#A80036;stroke-width:1.0;"/><line style="stroke:#A80036;stroke-width:1.0;" x1="463.5" x2="455.5" y1="166.89" y2="166.89"/><line style="stroke:#A80036;stroke-width:1.0;" x1="463.5" x2="455.5" y1="163.89" y2="163.89"/><line style="stroke:#A80036;stroke-width:1.0;" x1="459.5" x2="459.5" y1="162.89" y2="170.89"/><line style="stroke:#A80036;stroke-width:1.0;" x1="459.5" x2="453.5" y1="112.58" y2="104.58"/><line style="stroke:#A80036;stroke-width:1.0;" x1="459.5" x2="465.5" y1="112.58" y2="104.58"/><line style="stroke:#A80036;stroke-width:1.0;" x1="459.5" x2="459.5" y1="112.58" y2="104.58"/><ellipse cx="459.5" cy="118.58" fill="none" rx="4" ry="4" style="stroke:#A80036;stroke-width:1.0;"/><!--MD5=[83f59a533759aa19674d765db0d71fc7]
link reviews to cabins--><path codeLine="63" d="M746,119.2 C746,119.2 746,178 746,178 C746,178 725.69,178 725.69,178 " fill="none" id="reviews-cabins" style="stroke:#A80036;stroke-width:1.0;"/><line style="stroke:#A80036;stroke-width:1.0;" x1="721.69" x2="721.69" y1="182" y2="174"/><line style="stroke:#A80036;stroke-width:1.0;" x1="724.69" x2="724.69" y1="182" y2="174"/><line style="stroke:#A80036;stroke-width:1.0;" x1="725.69" x2="717.69" y1="178" y2="178"/><line style="stroke:#A80036;stroke-width:1.0;" x1="746" x2="740" y1="119.2" y2="111.2"/><line style="stroke:#A80036;stroke-width:1.0;" x1="746" x2="752" y1="119.2" y2="111.2"/><line style="stroke:#A80036;stroke-width:1.0;" x1="746" x2="746" y1="119.2" y2="111.2"/><ellipse cx="746" cy="125.2" fill="none" rx="4" ry="4" style="stroke:#A80036;stroke-width:1.0;"/><!--MD5=[947d5c6cb415875d917ab7c83a787a48]
link reviews to users--><path codeLine="64" d="M841.5,119.15 C841.5,119.15 841.5,175.92 841.5,175.92 " fill="none" id="reviews-users" style="stroke:#A80036;stroke-width:1.0;"/><line style="stroke:#A80036;stroke-width:1.0;" x1="845.5" x2="837.5" y1="179.92" y2="179.92"/><line style="stroke:#A80036;stroke-width:1.0;" x1="845.5" x2="837.5" y1="176.92" y2="176.92"/><line style="stroke:#A80036;stroke-width:1.0;" x1="841.5" x2="841.5" y1="175.92" y2="183.92"/><line style="stroke:#A80036;stroke-width:1.0;" x1="841.5" x2="835.5" y1="119.15" y2="111.15"/><line style="stroke:#A80036;stroke-width:1.0;" x1="841.5" x2="847.5" y1="119.15" y2="111.15"/><line style="stroke:#A80036;stroke-width:1.0;" x1="841.5" x2="841.5" y1="119.15" y2="111.15"/><ellipse cx="841.5" cy="125.15" fill="none" rx="4" ry="4" style="stroke:#A80036;stroke-width:1.0;"/><!--MD5=[b95766cd01c2087dfbb4db0f45ad9500]
link municipalities to cabins--><path codeLine="65" d="M111.5,100.29 C111.5,100.29 111.5,236 111.5,236 C111.5,236 441.19,236 441.19,236 " fill="none" id="municipalities-cabins" style="stroke:#A80036;stroke-width:1.0;"/><line style="stroke:#A80036;stroke-width:1.0;" x1="441.19" x2="449.19" y1="236" y2="230"/><line style="stroke:#A80036;stroke-width:1.0;" x1="441.19" x2="449.19" y1="236" y2="242"/><line style="stroke:#A80036;stroke-width:1.0;" x1="441.19" x2="449.19" y1="236" y2="236"/><ellipse cx="435.19" cy="236" fill="none" rx="4" ry="4" style="stroke:#A80036;stroke-width:1.0;"/><line style="stroke:#A80036;stroke-width:1.0;" x1="107.5" x2="115.5" y1="96.29" y2="96.29"/><line style="stroke:#A80036;stroke-width:1.0;" x1="107.5" x2="115.5" y1="99.29" y2="99.29"/><line style="stroke:#A80036;stroke-width:1.0;" x1="111.5" x2="111.5" y1="100.29" y2="92.29"/><!--MD5=[6b7d3a247563aa0feac76d36058d6641]
link keywords to cabins--><path codeLine="66" d="M604.5,100.29 C604.5,100.29 604.5,162.95 604.5,162.95 " fill="none" id="keywords-cabins" style="stroke:#A80036;stroke-width:1.0;"/><line style="stroke:#A80036;stroke-width:1.0;" x1="604.5" x2="610.5" y1="162.95" y2="170.95"/><line style="stroke:#A80036;stroke-width:1.0;" x1="604.5" x2="598.5" y1="162.95" y2="170.95"/><line style="stroke:#A80036;stroke-width:1.0;" x1="604.5" x2="604.5" y1="162.95" y2="170.95"/><ellipse cx="604.5" cy="156.95" fill="none" rx="4" ry="4" style="stroke:#A80036;stroke-width:1.0;"/><line style="stroke:#A80036;stroke-width:1.0;" x1="604.5" x2="598.5" y1="100.29" y2="92.29"/><line style="stroke:#A80036;stroke-width:1.0;" x1="604.5" x2="610.5" y1="100.29" y2="92.29"/><line style="stroke:#A80036;stroke-width:1.0;" x1="604.5" x2="604.5" y1="100.29" y2="92.29"/><ellipse cx="604.5" cy="106.29" fill="none" rx="4" ry="4" style="stroke:#A80036;stroke-width:1.0;"/><!--MD5=[f04cbecc3aee1663358ac6c8571025b3]
@startuml DB DIAGRAM

hide circle
skinparam linetype ortho

entity users {
  * id : UUID <<PK>>
  * email : TEXT <<not null>>
  * name : TEXT <<not null>>
  * password : TEXT <<not null>>
  * role : TEXT <<not null>>
}

entity municipalities {
  * id : INTEGER <<PK>> <<generated>>
  * name : TEXT <<unique>> <<not null>>
}

entity cabins {
  * id : INTEGER <<PK>> <<generated>>
  * name : TEXT <<not null>>
  * address : TEXT <<not null>>
  * price : INTEGER <<not null>> <<microcurrency>>
  * description : TEXT
  - - -
  * municipality_id : INTEGER <<FK>> <<not null>>
  * owner_id : UUID <<FK>> <<not null>>
}

entity reviews {
  * id : INTEGER <<PK>> <<generated>>
  * content : TEXT
  * rating : SMALLINT
  - - -
  * user_id : UUID <<FK>> not null
  * cabin_id : INTEGER <<FK>> not null
}

entity reservations {
  * id : INTEGER <<PK>> <<generated>>
  * start_date : DATE <<not null>>
  * end_date : DATE <<not null>>
  - - -
  * user_id : UUID <<FK>> <<not null>>
  * cabin_id : INTEGER <<FK>> <<not null>>
}

entity cabin_images {
  * id : INTEGER <<PK>> <<generated>>
  * data : TEXT <<not null>> <<base64>>
  * is_default : BOOLEAN <<not null>>
  - - -
  * cabin_id : INTEGER <<FK>> <<not null>>
}

entity keywords {
  * id : INTEGER <<PK>> <<generated>>
  * keyword : TEXT <<not null>>
}

cabins ||- -o{ reservations
users ||- -o{ reservations
cabin_images }o- -|| cabins
reviews }o- -|| cabins
reviews }o- -|| users
municipalities ||- -o{ cabins
keywords }o- -o{ cabins

@enduml

PlantUML version 1.2021.00(Sun Jan 10 12:25:05 EET 2021)
(GPL source distribution)
Java Runtime: OpenJDK Runtime Environment
JVM: OpenJDK 64-Bit Server VM
Default Encoding: UTF-8
Language: en
Country: US
--></g></svg>