<?xml version="1.0" encoding="UTF-8" standalone="no"?><svg xmlns="http://www.w3.org/2000/svg" xmlns:xlink="http://www.w3.org/1999/xlink" contentScriptType="application/ecmascript" contentStyleType="text/css" height="465px" preserveAspectRatio="none" style="width:725px;height:465px;" version="1.1" viewBox="0 0 725 465" width="725px" zoomAndPan="magnify"><defs><filter height="300%" id="f19x8k7tcmi529" width="300%" x="-1" y="-1"><feGaussianBlur result="blurOut" stdDeviation="2.0"/><feColorMatrix in="blurOut" result="blurOut2" type="matrix" values="0 0 0 0 0 0 0 0 0 0 0 0 0 0 0 0 0 0 .4 0"/><feOffset dx="4.0" dy="4.0" in="blurOut2" result="blurOut3"/><feBlend in="SourceGraphic" in2="blurOut3" mode="normal"/></filter></defs><g><!--MD5=[8413f8248b2da7966d2de021109ec289]
class users--><rect codeLine="5" fill="#FEFECE" filter="url(#f19x8k7tcmi529)" height="103.9922" id="users" style="stroke:#A80036;stroke-width:1.5;" width="178" x="521.5" y="177.5"/><text fill="#000000" font-family="sans-serif" font-size="12" lengthAdjust="spacing" textLength="35" x="593" y="193.6387">users</text><line style="stroke:#A80036;stroke-width:1.5;" x1="522.5" x2="698.5" y1="201.4688" y2="201.4688"/><ellipse cx="532.5" cy="212.4688" fill="#000000" rx="3" ry="3" style="stroke:#000000;stroke-width:1.0;"/><text fill="#000000" font-family="sans-serif" font-size="11" lengthAdjust="spacing" textLength="78" x="541.5" y="215.6792">id : UUID «PK»</text><ellipse cx="532.5" cy="225.2734" fill="#000000" rx="3" ry="3" style="stroke:#000000;stroke-width:1.0;"/><text fill="#000000" font-family="sans-serif" font-size="11" lengthAdjust="spacing" textLength="127" x="541.5" y="228.4839">email : TEXT «not null»</text><ellipse cx="532.5" cy="238.0781" fill="#000000" rx="3" ry="3" style="stroke:#000000;stroke-width:1.0;"/><text fill="#000000" font-family="sans-serif" font-size="11" lengthAdjust="spacing" textLength="128" x="541.5" y="241.2886">name : TEXT «not null»</text><ellipse cx="532.5" cy="250.8828" fill="#000000" rx="3" ry="3" style="stroke:#000000;stroke-width:1.0;"/><text fill="#000000" font-family="sans-serif" font-size="11" lengthAdjust="spacing" textLength="152" x="541.5" y="254.0933">password : TEXT «not null»</text><ellipse cx="532.5" cy="263.6875" fill="#000000" rx="3" ry="3" style="stroke:#000000;stroke-width:1.0;"/><text fill="#000000" font-family="sans-serif" font-size="11" lengthAdjust="spacing" textLength="118" x="541.5" y="266.8979">role : TEXT «not null»</text><line style="stroke:#A80036;stroke-width:1.5;" x1="522.5" x2="698.5" y1="273.4922" y2="273.4922"/><!--MD5=[c3651515b6ea3a4275d58ee28459792c]
class municipalities--><rect codeLine="13" fill="#FEFECE" filter="url(#f19x8k7tcmi529)" height="65.5781" id="municipalities" style="stroke:#A80036;stroke-width:1.5;" width="209" x="7" y="26"/><text fill="#000000" font-family="sans-serif" font-size="12" lengthAdjust="spacing" textLength="85" x="69" y="42.1387">municipalities</text><line style="stroke:#A80036;stroke-width:1.5;" x1="8" x2="215" y1="49.9688" y2="49.9688"/><ellipse cx="18" cy="60.9688" fill="#000000" rx="3" ry="3" style="stroke:#000000;stroke-width:1.0;"/><text fill="#000000" font-family="sans-serif" font-size="11" lengthAdjust="spacing" textLength="174" x="27" y="64.1792">id : INTEGER «PK» «generated»</text><ellipse cx="18" cy="73.7734" fill="#000000" rx="3" ry="3" style="stroke:#000000;stroke-width:1.0;"/><text fill="#000000" font-family="sans-serif" font-size="11" lengthAdjust="spacing" textLength="183" x="27" y="76.9839">name : TEXT «unique» «not null»</text><line style="stroke:#A80036;stroke-width:1.5;" x1="8" x2="215" y1="83.5781" y2="83.5781"/><!--MD5=[5fa3f3f24fcc73033a01bdfa1d859f84]
class cabins--><rect codeLine="18" fill="#FEFECE" filter="url(#f19x8k7tcmi529)" height="116.7969" id="cabins" style="stroke:#A80036;stroke-width:1.5;" width="255" x="231" y="171"/><text fill="#000000" font-family="sans-serif" font-size="12" lengthAdjust="spacing" textLength="41" x="338" y="187.1387">cabins</text><line style="stroke:#A80036;stroke-width:1.5;" x1="232" x2="485" y1="194.9688" y2="194.9688"/><ellipse cx="242" cy="205.9688" fill="#000000" rx="3" ry="3" style="stroke:#000000;stroke-width:1.0;"/><text fill="#000000" font-family="sans-serif" font-size="11" lengthAdjust="spacing" textLength="174" x="251" y="209.1792">id : INTEGER «PK» «generated»</text><ellipse cx="242" cy="218.7734" fill="#000000" rx="3" ry="3" style="stroke:#000000;stroke-width:1.0;"/><text fill="#000000" font-family="sans-serif" font-size="11" lengthAdjust="spacing" textLength="143" x="251" y="221.9839">address : TEXT «not null»</text><ellipse cx="242" cy="231.5781" fill="#000000" rx="3" ry="3" style="stroke:#000000;stroke-width:1.0;"/><text fill="#000000" font-family="sans-serif" font-size="11" lengthAdjust="spacing" textLength="136" x="251" y="234.7886">price : MONEY «not null»</text><ellipse cx="242" cy="244.3828" fill="#000000" rx="3" ry="3" style="stroke:#000000;stroke-width:1.0;"/><text fill="#000000" font-family="sans-serif" font-size="11" lengthAdjust="spacing" textLength="101" x="251" y="247.5933">description : TEXT</text><line style="stroke:#A80036;stroke-width:1.0;" x1="232" x2="485" y1="254.1875" y2="254.1875"/><ellipse cx="242" cy="265.1875" fill="#000000" rx="3" ry="3" style="stroke:#000000;stroke-width:1.0;"/><text fill="#000000" font-family="sans-serif" font-size="11" lengthAdjust="spacing" textLength="229" x="251" y="268.3979">municipality_id : INTEGER «FK» «not null»</text><ellipse cx="242" cy="277.9922" fill="#000000" rx="3" ry="3" style="stroke:#000000;stroke-width:1.0;"/><text fill="#000000" font-family="sans-serif" font-size="11" lengthAdjust="spacing" textLength="176" x="251" y="281.2026">owner_id : UUID «FK» «not null»</text><!--MD5=[fbb9b5abc0442951ff62dbb688a229f9]
class reviews--><rect codeLine="28" fill="#FEFECE" filter="url(#f19x8k7tcmi529)" height="103.9922" id="reviews" style="stroke:#A80036;stroke-width:1.5;" width="204" x="507.5" y="7"/><text fill="#000000" font-family="sans-serif" font-size="12" lengthAdjust="spacing" textLength="46" x="586.5" y="23.1387">reviews</text><line style="stroke:#A80036;stroke-width:1.5;" x1="508.5" x2="710.5" y1="30.9688" y2="30.9688"/><ellipse cx="518.5" cy="41.9688" fill="#000000" rx="3" ry="3" style="stroke:#000000;stroke-width:1.0;"/><text fill="#000000" font-family="sans-serif" font-size="11" lengthAdjust="spacing" textLength="174" x="527.5" y="45.1792">id : INTEGER «PK» «generated»</text><ellipse cx="518.5" cy="54.7734" fill="#000000" rx="3" ry="3" style="stroke:#000000;stroke-width:1.0;"/><text fill="#000000" font-family="sans-serif" font-size="11" lengthAdjust="spacing" textLength="80" x="527.5" y="57.9839">content : TEXT</text><ellipse cx="518.5" cy="67.5781" fill="#000000" rx="3" ry="3" style="stroke:#000000;stroke-width:1.0;"/><text fill="#000000" font-family="sans-serif" font-size="11" lengthAdjust="spacing" textLength="97" x="527.5" y="70.7886">rating : SMALLINT</text><line style="stroke:#A80036;stroke-width:1.0;" x1="508.5" x2="710.5" y1="77.3828" y2="77.3828"/><ellipse cx="518.5" cy="88.3828" fill="#000000" rx="3" ry="3" style="stroke:#000000;stroke-width:1.0;"/><text fill="#000000" font-family="sans-serif" font-size="11" lengthAdjust="spacing" textLength="153" x="527.5" y="91.5933">user_id : UUID «FK» not null</text><ellipse cx="518.5" cy="101.1875" fill="#000000" rx="3" ry="3" style="stroke:#000000;stroke-width:1.0;"/><text fill="#000000" font-family="sans-serif" font-size="11" lengthAdjust="spacing" textLength="178" x="527.5" y="104.3979">cabin_id : INTEGER «FK» not null</text><!--MD5=[a55992ddd2a515a7aacee27070226d93]
class reservations--><rect codeLine="37" fill="#FEFECE" filter="url(#f19x8k7tcmi529)" height="103.9922" id="reservations" style="stroke:#A80036;stroke-width:1.5;" width="218" x="375.5" y="348"/><text fill="#000000" font-family="sans-serif" font-size="12" lengthAdjust="spacing" textLength="78" x="445.5" y="364.1387">reservations</text><line style="stroke:#A80036;stroke-width:1.5;" x1="376.5" x2="592.5" y1="371.9688" y2="371.9688"/><ellipse cx="386.5" cy="382.9688" fill="#000000" rx="3" ry="3" style="stroke:#000000;stroke-width:1.0;"/><text fill="#000000" font-family="sans-serif" font-size="11" lengthAdjust="spacing" textLength="174" x="395.5" y="386.1792">id : INTEGER «PK» «generated»</text><ellipse cx="386.5" cy="395.7734" fill="#000000" rx="3" ry="3" style="stroke:#000000;stroke-width:1.0;"/><text fill="#000000" font-family="sans-serif" font-size="11" lengthAdjust="spacing" textLength="174" x="395.5" y="398.9839">reserve_start : DATE «not null»</text><ellipse cx="386.5" cy="408.5781" fill="#000000" rx="3" ry="3" style="stroke:#000000;stroke-width:1.0;"/><text fill="#000000" font-family="sans-serif" font-size="11" lengthAdjust="spacing" textLength="168" x="395.5" y="411.7886">reserve_end : DATE «not null»</text><line style="stroke:#A80036;stroke-width:1.0;" x1="376.5" x2="592.5" y1="418.3828" y2="418.3828"/><ellipse cx="386.5" cy="429.3828" fill="#000000" rx="3" ry="3" style="stroke:#000000;stroke-width:1.0;"/><text fill="#000000" font-family="sans-serif" font-size="11" lengthAdjust="spacing" textLength="167" x="395.5" y="432.5933">user_id : UUID «FK» «not null»</text><ellipse cx="386.5" cy="442.1875" fill="#000000" rx="3" ry="3" style="stroke:#000000;stroke-width:1.0;"/><text fill="#000000" font-family="sans-serif" font-size="11" lengthAdjust="spacing" textLength="192" x="395.5" y="445.3979">cabin_id : INTEGER «FK» «not null»</text><!--MD5=[1dfcb459c8d67fa22f97ae4d9abe5177]
class cabin_images--><rect codeLine="46" fill="#FEFECE" filter="url(#f19x8k7tcmi529)" height="91.1875" id="cabin_images" style="stroke:#A80036;stroke-width:1.5;" width="218" x="251.5" y="13.5"/><text fill="#000000" font-family="sans-serif" font-size="12" lengthAdjust="spacing" textLength="85" x="318" y="29.6387">cabin_images</text><line style="stroke:#A80036;stroke-width:1.5;" x1="252.5" x2="468.5" y1="37.4688" y2="37.4688"/><ellipse cx="262.5" cy="48.4688" fill="#000000" rx="3" ry="3" style="stroke:#000000;stroke-width:1.0;"/><text fill="#000000" font-family="sans-serif" font-size="11" lengthAdjust="spacing" textLength="174" x="271.5" y="51.6792">id : INTEGER «PK» «generated»</text><ellipse cx="262.5" cy="61.2734" fill="#000000" rx="3" ry="3" style="stroke:#000000;stroke-width:1.0;"/><text fill="#000000" font-family="sans-serif" font-size="11" lengthAdjust="spacing" textLength="145" x="271.5" y="64.4839">filename : TEXT «not null»</text><ellipse cx="262.5" cy="74.0781" fill="#000000" rx="3" ry="3" style="stroke:#000000;stroke-width:1.0;"/><text fill="#000000" font-family="sans-serif" font-size="11" lengthAdjust="spacing" textLength="135" x="271.5" y="77.2886">bytes : BYTEA «not null»</text><line style="stroke:#A80036;stroke-width:1.0;" x1="252.5" x2="468.5" y1="83.8828" y2="83.8828"/><ellipse cx="262.5" cy="94.8828" fill="#000000" rx="3" ry="3" style="stroke:#000000;stroke-width:1.0;"/><text fill="#000000" font-family="sans-serif" font-size="11" lengthAdjust="spacing" textLength="192" x="271.5" y="98.0933">cabin_id : INTEGER «FK» «not null»</text><!--MD5=[3e5ecd75f46ce016c0b694721eb5d0b2]
link cabins to reservations--><path codeLine="54" d="M430.75,296.18 C430.75,296.18 430.75,339.78 430.75,339.78 " fill="none" id="cabins-reservations" style="stroke:#A80036;stroke-width:1.0;"/><line style="stroke:#A80036;stroke-width:1.0;" x1="430.75" x2="436.75" y1="339.78" y2="347.78"/><line style="stroke:#A80036;stroke-width:1.0;" x1="430.75" x2="424.75" y1="339.78" y2="347.78"/><line style="stroke:#A80036;stroke-width:1.0;" x1="430.75" x2="430.75" y1="339.78" y2="347.78"/><ellipse cx="430.75" cy="333.78" fill="none" rx="4" ry="4" style="stroke:#A80036;stroke-width:1.0;"/><line style="stroke:#A80036;stroke-width:1.0;" x1="426.75" x2="434.75" y1="292.18" y2="292.18"/><line style="stroke:#A80036;stroke-width:1.0;" x1="426.75" x2="434.75" y1="295.18" y2="295.18"/><line style="stroke:#A80036;stroke-width:1.0;" x1="430.75" x2="430.75" y1="296.18" y2="288.18"/><!--MD5=[a8dbc755d60c86b2dc93e62c98b677bf]
link users to reservations--><path codeLine="55" d="M557.5,289.58 C557.5,289.58 557.5,339.94 557.5,339.94 " fill="none" id="users-reservations" style="stroke:#A80036;stroke-width:1.0;"/><line style="stroke:#A80036;stroke-width:1.0;" x1="557.5" x2="563.5" y1="339.94" y2="347.94"/><line style="stroke:#A80036;stroke-width:1.0;" x1="557.5" x2="551.5" y1="339.94" y2="347.94"/><line style="stroke:#A80036;stroke-width:1.0;" x1="557.5" x2="557.5" y1="339.94" y2="347.94"/><ellipse cx="557.5" cy="333.94" fill="none" rx="4" ry="4" style="stroke:#A80036;stroke-width:1.0;"/><line style="stroke:#A80036;stroke-width:1.0;" x1="553.5" x2="561.5" y1="285.58" y2="285.58"/><line style="stroke:#A80036;stroke-width:1.0;" x1="553.5" x2="561.5" y1="288.58" y2="288.58"/><line style="stroke:#A80036;stroke-width:1.0;" x1="557.5" x2="557.5" y1="289.58" y2="281.58"/><!--MD5=[3aab6263b55d28f40f118048087b98ce]
link cabin_images to cabins--><path codeLine="56" d="M360.5,112.69 C360.5,112.69 360.5,162.82 360.5,162.82 " fill="none" id="cabin_images-cabins" style="stroke:#A80036;stroke-width:1.0;"/><line style="stroke:#A80036;stroke-width:1.0;" x1="364.5" x2="356.5" y1="166.82" y2="166.82"/><line style="stroke:#A80036;stroke-width:1.0;" x1="364.5" x2="356.5" y1="163.82" y2="163.82"/><line style="stroke:#A80036;stroke-width:1.0;" x1="360.5" x2="360.5" y1="162.82" y2="170.82"/><line style="stroke:#A80036;stroke-width:1.0;" x1="360.5" x2="354.5" y1="112.69" y2="104.69"/><line style="stroke:#A80036;stroke-width:1.0;" x1="360.5" x2="366.5" y1="112.69" y2="104.69"/><line style="stroke:#A80036;stroke-width:1.0;" x1="360.5" x2="360.5" y1="112.69" y2="104.69"/><ellipse cx="360.5" cy="118.69" fill="none" rx="4" ry="4" style="stroke:#A80036;stroke-width:1.0;"/><!--MD5=[83f59a533759aa19674d765db0d71fc7]
link reviews to cabins--><path codeLine="57" d="M499.32,59 C499.32,59 477.75,59 477.75,59 C477.75,59 477.75,162.82 477.75,162.82 " fill="none" id="reviews-cabins" style="stroke:#A80036;stroke-width:1.0;"/><line style="stroke:#A80036;stroke-width:1.0;" x1="481.75" x2="473.75" y1="166.82" y2="166.82"/><line style="stroke:#A80036;stroke-width:1.0;" x1="481.75" x2="473.75" y1="163.82" y2="163.82"/><line style="stroke:#A80036;stroke-width:1.0;" x1="477.75" x2="477.75" y1="162.82" y2="170.82"/><line style="stroke:#A80036;stroke-width:1.0;" x1="499.32" x2="507.32" y1="59" y2="53"/><line style="stroke:#A80036;stroke-width:1.0;" x1="499.32" x2="507.32" y1="59" y2="65"/><line style="stroke:#A80036;stroke-width:1.0;" x1="499.32" x2="507.32" y1="59" y2="59"/><ellipse cx="493.32" cy="59" fill="none" rx="4" ry="4" style="stroke:#A80036;stroke-width:1.0;"/><!--MD5=[947d5c6cb415875d917ab7c83a787a48]
link reviews to users--><path codeLine="58" d="M610.5,119.08 C610.5,119.08 610.5,169.44 610.5,169.44 " fill="none" id="reviews-users" style="stroke:#A80036;stroke-width:1.0;"/><line style="stroke:#A80036;stroke-width:1.0;" x1="614.5" x2="606.5" y1="173.44" y2="173.44"/><line style="stroke:#A80036;stroke-width:1.0;" x1="614.5" x2="606.5" y1="170.44" y2="170.44"/><line style="stroke:#A80036;stroke-width:1.0;" x1="610.5" x2="610.5" y1="169.44" y2="177.44"/><line style="stroke:#A80036;stroke-width:1.0;" x1="610.5" x2="604.5" y1="119.08" y2="111.08"/><line style="stroke:#A80036;stroke-width:1.0;" x1="610.5" x2="616.5" y1="119.08" y2="111.08"/><line style="stroke:#A80036;stroke-width:1.0;" x1="610.5" x2="610.5" y1="119.08" y2="111.08"/><ellipse cx="610.5" cy="125.08" fill="none" rx="4" ry="4" style="stroke:#A80036;stroke-width:1.0;"/><!--MD5=[b95766cd01c2087dfbb4db0f45ad9500]
link municipalities to cabins--><path codeLine="59" d="M224.23,59 C224.23,59 241.25,59 241.25,59 C241.25,59 241.25,162.82 241.25,162.82 " fill="none" id="municipalities-cabins" style="stroke:#A80036;stroke-width:1.0;"/><line style="stroke:#A80036;stroke-width:1.0;" x1="241.25" x2="247.25" y1="162.82" y2="170.82"/><line style="stroke:#A80036;stroke-width:1.0;" x1="241.25" x2="235.25" y1="162.82" y2="170.82"/><line style="stroke:#A80036;stroke-width:1.0;" x1="241.25" x2="241.25" y1="162.82" y2="170.82"/><ellipse cx="241.25" cy="156.82" fill="none" rx="4" ry="4" style="stroke:#A80036;stroke-width:1.0;"/><line style="stroke:#A80036;stroke-width:1.0;" x1="220.23" x2="220.23" y1="63" y2="55"/><line style="stroke:#A80036;stroke-width:1.0;" x1="223.23" x2="223.23" y1="63" y2="55"/><line style="stroke:#A80036;stroke-width:1.0;" x1="224.23" x2="216.23" y1="59" y2="59"/><!--MD5=[54c3003a5a477f42ae10a03e4fc84391]
@startuml DB DIAGRAM

hide circle
skinparam linetype ortho

entity users {
  * id : UUID <<PK>>
  * email : TEXT <<not null>>
  * name : TEXT <<not null>>
  * password : TEXT <<not null>>
  * role : TEXT <<not null>>
}

entity municipalities {
  * id : INTEGER <<PK>> <<generated>>
  * name : TEXT <<unique>> <<not null>>
}

entity cabins {
  * id : INTEGER <<PK>> <<generated>>
  * address : TEXT <<not null>>
  * price : MONEY <<not null>>
  * description : TEXT
  - - -
  * municipality_id : INTEGER <<FK>> <<not null>>
  * owner_id : UUID <<FK>> <<not null>>
}

entity reviews {
  * id : INTEGER <<PK>> <<generated>>
  * content : TEXT
  * rating : SMALLINT
  - - -
  * user_id : UUID <<FK>> not null
  * cabin_id : INTEGER <<FK>> not null
}

entity reservations {
  * id : INTEGER <<PK>> <<generated>>
  * reserve_start : DATE <<not null>>
  * reserve_end : DATE <<not null>>
  - - -
  * user_id : UUID <<FK>> <<not null>>
  * cabin_id : INTEGER <<FK>> <<not null>>
}

entity cabin_images {
  * id : INTEGER <<PK>> <<generated>>
  * filename : TEXT <<not null>>
  * bytes : BYTEA <<not null>>
  - - -
  * cabin_id : INTEGER <<FK>> <<not null>>
}

cabins ||- -o{ reservations
users ||- -o{ reservations
cabin_images }o- -|| cabins
reviews }o- -|| cabins
reviews }o- -|| users
municipalities ||- -o{ cabins

@enduml

PlantUML version 1.2021.00(Sun Jan 10 12:25:05 EET 2021)
(GPL source distribution)
Java Runtime: OpenJDK Runtime Environment
JVM: OpenJDK 64-Bit Server VM
Default Encoding: UTF-8
Language: en
Country: US
--></g></svg>